name ./resultDataOpenSim/trcMotMarkerGrf/sub10/grf-13-02.mot
datacolumns 19
datarows 30
range 0.46800000 0.58400000
endheader

                time	     ground_force_vx	     ground_force_vy	     ground_force_vz	     ground_force_px	     ground_force_py	     ground_force_pz	   l_ground_force_vx	   l_ground_force_vy	   l_ground_force_vz	   l_ground_force_px	   l_ground_force_py	   l_ground_force_pz	     ground_torque_x	     ground_torque_y	     ground_torque_z	   l_ground_torque_x	   l_ground_torque_y	   l_ground_torque_z	
          0.46800000	         30.74794293	        434.93515428	        -15.33712275	         -0.77655029	          0.00000000	         -0.00741887	          0.00000000	          0.00000000	          0.00000000	          0.00000000	          0.00000000	          0.00000000	          0.00000000	          5.01592031	          0.00000000	          0.00000000	          0.00000000	          0.00000000	
          0.47200000	         34.86768642	        445.06406582	        -16.43396586	         -0.77672334	          0.00000000	         -0.00790717	          0.00000000	          0.00000000	          0.00000000	          0.00000000	          0.00000000	          0.00000000	          0.00000000	          5.31136823	          0.00000000	          0.00000000	          0.00000000	          0.00000000	
          0.47600000	         39.70552138	        456.48294916	        -18.03840414	         -0.77690093	          0.00000000	         -0.00834449	          0.00000000	          0.00000000	          0.00000000	          0.00000000	          0.00000000	          0.00000000	          0.00000000	          5.57541696	          0.00000000	          0.00000000	          0.00000000	          0.00000000	
          0.48000000	         45.10387042	        469.07102355	        -19.89291323	         -0.77703226	          0.00000000	         -0.00873979	          0.00000000	          0.00000000	          0.00000000	          0.00000000	          0.00000000	          0.00000000	          0.00000000	          5.82613004	          0.00000000	          0.00000000	          0.00000000	          0.00000000	
          0.48400000	         50.78205623	        482.72078396	        -21.70534877	         -0.77705846	          0.00000000	         -0.00911566	          0.00000000	          0.00000000	          0.00000000	          0.00000000	          0.00000000	          0.00000000	          0.00000000	          6.08335959	          0.00000000	          0.00000000	          0.00000000	          0.00000000	
          0.48800000	         56.41083956	        497.36442738	        -23.21186851	         -0.77693639	          0.00000000	         -0.00949083	          0.00000000	          0.00000000	          0.00000000	          0.00000000	          0.00000000	          0.00000000	          0.00000000	          6.36356198	          0.00000000	          0.00000000	          0.00000000	          0.00000000	
          0.49200000	         61.70087471	        512.95760838	        -24.23526196	         -0.77664471	          0.00000000	         -0.00987266	          0.00000000	          0.00000000	          0.00000000	          0.00000000	          0.00000000	          0.00000000	          0.00000000	          6.67542638	          0.00000000	          0.00000000	          0.00000000	          0.00000000	
          0.49600000	         66.47584035	        529.43343381	        -24.72843664	         -0.77617435	          0.00000000	         -0.01025651	          0.00000000	          0.00000000	          0.00000000	          0.00000000	          0.00000000	          0.00000000	          0.00000000	          7.01724991	          0.00000000	          0.00000000	          0.00000000	          0.00000000	
          0.50000000	         70.70477031	        546.66584390	        -24.79123098	         -0.77551297	          0.00000000	         -0.01063157	          0.00000000	          0.00000000	          0.00000000	          0.00000000	          0.00000000	          0.00000000	          0.00000000	          7.37648428	          0.00000000	          0.00000000	          0.00000000	          0.00000000	
          0.50400000	         74.48571956	        564.46670025	        -24.64860453	         -0.77464787	          0.00000000	         -0.01098574	          0.00000000	          0.00000000	          0.00000000	          0.00000000	          0.00000000	          0.00000000	          0.00000000	          7.73137788	          0.00000000	          0.00000000	          0.00000000	          0.00000000	
          0.50800000	         77.99717752	        582.61616917	        -24.58966192	         -0.77359447	          0.00000000	         -0.01131195	          0.00000000	          0.00000000	          0.00000000	          0.00000000	          0.00000000	          0.00000000	          0.00000000	          8.05428195	          0.00000000	          0.00000000	          0.00000000	          0.00000000	
          0.51200000	         81.43624566	        600.89466162	        -24.88979465	         -0.77237171	          0.00000000	         -0.01160124	          0.00000000	          0.00000000	          0.00000000	          0.00000000	          0.00000000	          0.00000000	          0.00000000	          8.31599409	          0.00000000	          0.00000000	          0.00000000	          0.00000000	
          0.51600000	         84.95396271	        619.09557035	        -25.74777185	         -0.77099394	          0.00000000	         -0.01185265	          0.00000000	          0.00000000	          0.00000000	          0.00000000	          0.00000000	          0.00000000	          0.00000000	          8.49042490	          0.00000000	          0.00000000	          0.00000000	          0.00000000	
          0.52000000	         88.61085384	        637.04453630	        -27.24965298	         -0.76945830	          0.00000000	         -0.01207055	          0.00000000	          0.00000000	          0.00000000	          0.00000000	          0.00000000	          0.00000000	          0.00000000	          8.55884834	          0.00000000	          0.00000000	          0.00000000	          0.00000000	
          0.52400000	         92.36919466	        654.64886278	        -29.35349908	         -0.76775495	          0.00000000	         -0.01226081	          0.00000000	          0.00000000	          0.00000000	          0.00000000	          0.00000000	          0.00000000	          0.00000000	          8.51303697	          0.00000000	          0.00000000	          0.00000000	          0.00000000	
          0.52800000	         96.10410360	        671.95198852	        -31.89988037	         -0.76589747	          0.00000000	         -0.01243981	          0.00000000	          0.00000000	          0.00000000	          0.00000000	          0.00000000	          0.00000000	          0.00000000	          8.35673759	          0.00000000	          0.00000000	          0.00000000	          0.00000000	
          0.53200000	         99.62923446	        689.11155219	        -34.65422664	         -0.76394132	          0.00000000	         -0.01263518	          0.00000000	          0.00000000	          0.00000000	          0.00000000	          0.00000000	          0.00000000	          0.00000000	          8.10525488	          0.00000000	          0.00000000	          0.00000000	          0.00000000	
          0.53600000	        102.76208252	        706.24776091	        -37.34678012	         -0.76196845	          0.00000000	         -0.01287236	          0.00000000	          0.00000000	          0.00000000	          0.00000000	          0.00000000	          0.00000000	          0.00000000	          7.78333859	          0.00000000	          0.00000000	          0.00000000	          0.00000000	
          0.54000000	        105.39863682	        723.28621700	        -39.67866653	         -0.76000560	          0.00000000	         -0.01317292	          0.00000000	          0.00000000	          0.00000000	          0.00000000	          0.00000000	          0.00000000	          0.00000000	          7.42192795	          0.00000000	          0.00000000	          0.00000000	          0.00000000	
          0.54400000	        107.54202831	        740.00799505	        -41.32631895	         -0.75801210	          0.00000000	         -0.01355959	          0.00000000	          0.00000000	          0.00000000	          0.00000000	          0.00000000	          0.00000000	          0.00000000	          7.05436599	          0.00000000	          0.00000000	          0.00000000	          0.00000000	
          0.54800000	        109.31231017	        756.29134687	        -41.98507313	         -0.75596851	          0.00000000	         -0.01405535	          0.00000000	          0.00000000	          0.00000000	          0.00000000	          0.00000000	          0.00000000	          0.00000000	          6.71246371	          0.00000000	          0.00000000	          0.00000000	          0.00000000	
          0.55200000	        110.96186721	        772.26002362	        -41.44682969	         -0.75395341	          0.00000000	         -0.01467591	          0.00000000	          0.00000000	          0.00000000	          0.00000000	          0.00000000	          0.00000000	          0.00000000	          6.42262459	          0.00000000	          0.00000000	          0.00000000	          0.00000000	
          0.55600000	        112.84209653	        788.14088501	        -39.66575255	         -0.75211084	          0.00000000	         -0.01541859	          0.00000000	          0.00000000	          0.00000000	          0.00000000	          0.00000000	          0.00000000	          0.00000000	          6.20246571	          0.00000000	          0.00000000	          0.00000000	          0.00000000	
          0.56000000	        115.30444240	        803.96755869	        -36.75969198	         -0.75053702	          0.00000000	         -0.01626164	          0.00000000	          0.00000000	          0.00000000	          0.00000000	          0.00000000	          0.00000000	          0.00000000	          6.05875385	          0.00000000	          0.00000000	          0.00000000	          0.00000000	
          0.56400000	        118.60957850	        819.44315872	        -32.95871641	         -0.74921304	          0.00000000	         -0.01717824	          0.00000000	          0.00000000	          0.00000000	          0.00000000	          0.00000000	          0.00000000	          0.00000000	          5.98737183	          0.00000000	          0.00000000	          0.00000000	          0.00000000	
          0.56800000	        122.90111057	        834.11491884	        -28.55689319	         -0.74805173	          0.00000000	         -0.01814304	          0.00000000	          0.00000000	          0.00000000	          0.00000000	          0.00000000	          0.00000000	          0.00000000	          5.97530709	          0.00000000	          0.00000000	          0.00000000	          0.00000000	
          0.57200000	        128.21626916	        847.67770504	        -23.86769475	         -0.74699610	          0.00000000	         -0.01912542	          0.00000000	          0.00000000	          0.00000000	          0.00000000	          0.00000000	          0.00000000	          0.00000000	          6.00392470	          0.00000000	          0.00000000	          0.00000000	          0.00000000	
          0.57600000	        134.49260931	        860.07629308	        -19.16360804	         -0.74606619	          0.00000000	         -0.02009184	          0.00000000	          0.00000000	          0.00000000	          0.00000000	          0.00000000	          0.00000000	          0.00000000	          6.05256291	          0.00000000	          0.00000000	          0.00000000	          0.00000000	
          0.58000000	        141.57077838	        871.31228608	        -14.64394532	         -0.74530103	          0.00000000	         -0.02101371	          0.00000000	          0.00000000	          0.00000000	          0.00000000	          0.00000000	          0.00000000	          0.00000000	          6.10170496	          0.00000000	          0.00000000	          0.00000000	          0.00000000	
          0.58400000	        149.21131052	        881.20302450	        -10.44614582	         -0.74468114	          0.00000000	         -0.02187458	          0.00000000	          0.00000000	          0.00000000	          0.00000000	          0.00000000	          0.00000000	          0.00000000	          6.13531637	          0.00000000	          0.00000000	          0.00000000	          0.00000000	
